<svg width="124" height="124" viewBox="0 0 124 124" fill="none" xmlns="http://www.w3.org/2000/svg">
<path d="M61.9013 0.775024C96.4144 0.775024 123.225 27.4128 123.225 62C123.225 98.34 93.9703 123.225 61.9013 123.225C28.6966 123.225 0.775024 95.8713 0.775024 62C0.775024 29.1903 26.6228 0.775024 61.9013 0.775024ZM14.5506 45.4841C12.7238 50.5203 11.8103 56.0256 11.8103 62C11.8103 89.3785 34.5475 111.968 62.0988 111.968C92.3163 111.968 105.845 86.8356 106.166 86.2678L83.1078 75.9978C81.2069 85.1569 72.9366 89.0822 66.271 89.6747V99.0807H59.161V89.65C52.3719 89.576 46.1753 87.1319 40.5713 82.3178L48.9897 73.8006C56.8156 81.0588 70.3197 81.6513 70.3197 73.2575C70.3197 71.7269 69.7766 70.4925 68.6903 69.5297C65.1847 68.0485 68.246 69.505 14.5506 45.4841ZM62.0988 11.7116C52.6188 11.7116 34.35 13.8594 20.0066 34.671L43.4103 45.1631C45.8791 37.436 53.3841 34.5722 59.161 34.2266V24.8206H66.271V34.2266C71.875 34.5228 76.9853 36.4238 81.5772 39.9047L73.6031 48.101C63.0616 40.7194 52.9891 46.126 56.3219 50.8413C69.505 56.791 67.135 55.7294 79.2813 61.1113L110.659 75.1091C111.671 70.8135 112.19 66.4438 112.19 62C112.19 47.9281 107.302 36.0781 97.55 26.4747C87.8478 16.6244 76.0225 11.7116 62.0988 11.7116Z" fill="black"/>
</svg>
